<svg width="21" height="18" viewBox="0 0 21 18" fill="none" xmlns="http://www.w3.org/2000/svg">
<g clip-path="url(#clip0_934_5506)">
<path fill-rule="evenodd" clip-rule="evenodd" d="M7.69099 0V2.12C7.69099 4.207 7.72299 4.24 8.90399 5.054C9.54199 5.478 10.244 5.739 10.403 5.641C10.562 5.543 11.105 5.152 11.615 4.826C12.381 4.304 12.477 4.011 12.572 2.185C12.636 0.195 12.636 0.163 13.593 0.065C14.135 0.033 14.997 0.261 15.603 0.652C16.145 1.011 16.975 1.793 17.421 2.38C17.9 2.967 18.251 3.913 18.251 4.565C18.314 5.511 18.091 5.902 17.038 6.848C16.337 7.468 14.486 8.968 10.084 12.326L6.09599 9.163C2.49199 6.293 2.10899 5.903 2.01299 4.891C1.94899 4.043 2.14099 3.457 2.77899 2.609C3.25699 1.989 4.08699 1.141 4.59699 0.75C5.17099 0.326 6.03299 0 7.69099 0ZM2.55499 8.804C3.00199 8.804 3.70399 9.098 4.11899 9.457C4.50099 9.815 4.91599 10.435 5.01199 10.827C5.13899 11.25 5.90499 12.228 6.76599 13.044C7.88299 14.12 8.32999 14.772 8.32999 15.39C8.32999 15.912 8.01099 16.63 7.53299 17.119C6.95899 17.739 6.41599 17.934 5.45899 17.934C4.34299 17.934 3.99199 17.738 2.58899 16.304C1.72699 15.39 0.76899 14.151 0.51499 13.532C0.25999 12.912 0.03599 11.902 0.00498997 11.282C-0.02801 10.402 0.16399 10.01 0.86499 9.488C1.34499 9.097 2.10999 8.803 2.55599 8.803M17.646 8.803C18.188 8.803 18.858 9.129 19.336 9.619C19.846 10.14 20.134 10.793 20.134 11.412C20.134 11.934 19.879 12.945 19.528 13.597C19.208 14.282 18.538 15.325 18.028 15.945C17.518 16.532 16.688 17.249 16.146 17.543C15.636 17.803 14.774 17.999 14.232 17.999C13.722 17.966 12.956 17.608 12.542 17.216C12.102 16.7468 11.8515 16.1311 11.839 15.488C11.839 14.934 12.031 14.282 12.254 14.021C12.478 13.727 13.179 13.075 13.849 12.553C14.519 11.999 15.157 11.282 15.253 10.923C15.349 10.564 15.731 9.945 16.083 9.521C16.465 9.097 17.103 8.803 17.646 8.803Z" fill="url(#paint0_linear_934_5506)"/>
</g>
<defs>
<linearGradient id="paint0_linear_934_5506" x1="20.134" y1="8.9995" x2="0.00146406" y2="8.9995" gradientUnits="userSpaceOnUse">
<stop stop-color="#7262F3"/>
<stop offset="1" stop-color="#845EF4"/>
</linearGradient>
<clipPath id="clip0_934_5506">
<rect width="21" height="18" fill="white"/>
</clipPath>
</defs>
</svg>
